# File created by Blade
# Date/Time:  Wed Apr 08 17:12:12 2015
# Frame Rate: 120.000 fps
#------------------------------------------------------
:FULLY-SPECIFIED
:DEGREES
1371
root 6.598361 38.431769 5.998544 156.248083 -59.849310 -111.718639
Spine -18.096124 7.243125 6.436394
Head -7.894166 9.258570 22.076836
LeftShoulder -8.509774 22.908352 18.983906
LeftArm 13.089756 39.975922 -73.854528
LeftForeArm 32.999951 0.000000 37.692396
LeftHand -7.392097 -0.000000 -19.267323
LeftHandThumb1 -26.253704 0.000000 33.147579
RightShoulder -43.756492 -53.205974 28.190876
RightArm 42.313768 -17.939752 59.882802
RightForeArm 35.612908 -0.000000 20.555080
RightHand -3.768787 -0.000000 4.800195
RightHandThumb1 -24.326973 -0.000000 -32.862282
LeftUpLeg -47.467716 24.187187 7.685507
LeftLeg 16.537952 -0.000000 -0.000000
LeftFoot -10.915343 11.564622 -13.319902
LeftToeBase 3.361390 -0.000000 -0.000000
RightUpLeg -38.929517 -12.373877 -30.283346
RightLeg 150.626873 -0.000000 -0.000000
RightFoot 43.877991 15.518728 20.827897
RightToeBase -9.092601 -0.000000 0.000000
1372
root 6.588250 38.446642 5.994385 156.712720 -59.642228 -111.993258
Spine -18.743137 7.682201 6.235491
Head -7.589345 9.080568 22.275103
LeftShoulder -8.433345 23.039577 19.130074
LeftArm 13.141413 40.049846 -73.758533
LeftForeArm 32.910482 0.000000 37.755198
LeftHand -7.426980 -0.000000 -19.271958
LeftHandThumb1 -26.253704 0.000000 33.147579
RightShoulder -43.832572 -53.142064 28.351168
RightArm 42.530613 -17.838918 59.779055
RightForeArm 35.392778 -0.000000 20.087816
RightHand -3.577132 -0.000000 4.775910
RightHandThumb1 -24.326973 -0.000000 -32.862282
LeftUpLeg -47.492622 24.414945 7.610933
LeftLeg 16.298317 -0.000000 -0.000000
LeftFoot -10.841777 11.666404 -13.258877
LeftToeBase 3.347098 -0.000000 -0.000000
RightUpLeg -40.257845 -12.684875 -30.139585
RightLeg 150.633422 -0.000000 -0.000000
RightFoot 43.826065 15.015364 21.426737
RightToeBase -9.261040 -0.000000 0.000000
1373
root 6.576232 38.439900 5.976000 154.895775 -59.999332 -111.008024
Spine -17.866220 7.157916 6.768979
Head -7.674465 9.180097 22.161433
LeftShoulder -8.493013 22.814105 18.999357
LeftArm 13.169446 39.936885 -73.802674
LeftForeArm 32.548116 -0.000000 37.737243
LeftHand -7.609797 0.000000 -19.554494
LeftHandThumb1 -26.253704 0.000000 33.147579
RightShoulder -43.291503 -52.939561 27.928510
RightArm 42.753581 -17.500300 59.839670
RightForeArm 35.059572 -0.000000 19.667785
RightHand -3.429545 0.000000 4.763835
RightHandThumb1 -24.326973 -0.000000 -32.862282
LeftUpLeg -46.501776 23.666865 8.399885
LeftLeg 16.246559 -0.000000 -0.000000
LeftFoot -10.817363 11.775256 -13.233092
LeftToeBase 3.334231 -0.000000 -0.000000
RightUpLeg -39.849505 -13.094862 -30.043511
RightLeg 150.432635 -0.000000 -0.000000
RightFoot 43.688094 14.954482 21.392114
RightToeBase -9.191951 -0.000000 0.000000
1374
root 6.563300 38.442356 5.964167 154.271431 -60.040833 -110.708110
Spine -17.771353 7.147686 6.927315
Head -7.535844 9.144479 22.216791
LeftShoulder -8.478681 22.790460 19.009901
LeftArm 13.206298 39.915169 -73.794025
LeftForeArm 32.500511 0.000000 37.713932
LeftHand -7.615273 -0.000000 -19.596647
LeftHandThumb1 -26.253704 0.000000 33.147579
RightShoulder -43.134851 -52.862782 27.863471
RightArm 43.021007 -17.275545 59.782990
RightForeArm 34.852322 -0.000000 19.262908
RightHand -3.173823 -0.000000 4.803820
RightHandThumb1 -24.326973 -0.000000 -32.862282
LeftUpLeg -46.000498 23.437987 8.760938
LeftLeg 16.098073 -0.000000 -0.000000
LeftFoot -10.794674 11.855501 -13.225374
LeftToeBase 3.310244 -0.000000 -0.000000
RightUpLeg -40.368316 -13.407393 -29.957648
RightLeg 150.282609 -0.000000 -0.000000
RightFoot 43.638547 14.838279 21.574130
RightToeBase -9.111799 -0.000000 0.000000
1375
root 6.550300 38.446897 5.953659 153.812738 -60.066567 -110.492596
Spine -17.796659 7.140670 7.040933
Head -7.337686 9.124158 22.289346
LeftShoulder -8.514914 22.795500 19.016105
LeftArm 13.246474 39.915926 -73.778943
LeftForeArm 32.496424 -0.000000 37.658839
LeftHand -7.595581 -0.000000 -19.619656
LeftHandThumb1 -26.253704 0.000000 33.147579
RightShoulder -42.960882 -52.813934 27.798516
RightArm 43.213813 -16.943448 59.847425
RightForeArm 34.539151 0.000000 18.933819
RightHand -3.059949 -0.000000 4.844068
RightHandThumb1 -24.326973 -0.000000 -32.862282
LeftUpLeg -45.591002 23.243233 9.060232
LeftLeg 15.954258 -0.000000 -0.000000
LeftFoot -10.770840 11.926687 -13.259353
LeftToeBase 3.316603 -0.000000 -0.000000
RightUpLeg -41.033087 -13.773571 -29.850773
RightLeg 150.129062 -0.000000 -0.000000
RightFoot 43.562519 14.837424 21.494597
RightToeBase -9.199328 -0.000000 0.000000
1376
root 6.534863 38.455510 5.946841 153.904331 -59.958023 -110.616898
Spine -18.153312 7.392587 6.982375
Head -7.075240 9.032622 22.424656
LeftShoulder -8.511379 22.887683 19.066716
LeftArm 13.309250 39.946986 -73.703959
LeftForeArm 32.508744 -0.000000 37.627803
LeftHand -7.595986 -0.000000 -19.643346
LeftHandThumb1 -26.253704 0.000000 33.147579
RightShoulder -42.940176 -52.782711 27.869424
RightArm 43.362400 -16.640798 59.917776
RightForeArm 34.248229 -0.000000 18.596843
RightHand -2.816045 -0.000000 4.950018
RightHandThumb1 -24.326973 -0.000000 -32.862282
LeftUpLeg -45.394358 23.305597 9.151291
LeftLeg 15.789994 -0.000000 -0.000000
LeftFoot -10.737528 11.964366 -13.288892
LeftToeBase 3.227977 -0.000000 -0.000000
RightUpLeg -42.105819 -14.096556 -29.748295
RightLeg 149.980519 -0.000000 -0.000000
RightFoot 43.576736 14.832556 21.527810
RightToeBase -9.349872 -0.000000 0.000000
1377
root 6.527705 38.464495 5.940733 153.626262 -59.940792 -110.453556
Spine -18.329520 7.485189 7.067958
Head -6.901858 8.960311 22.499400
LeftShoulder -8.472220 22.865674 19.109582
LeftArm 13.233258 39.934999 -73.757436
LeftForeArm 32.537755 -0.000000 37.633389
LeftHand -7.695866 -0.000000 -19.610905
LeftHandThumb1 -26.253704 0.000000 33.147579
RightShoulder -42.830896 -52.712200 27.833775
RightArm 43.530743 -16.368998 59.949637
RightForeArm 33.973323 -0.000000 18.308730
RightHand -2.725498 0.000000 4.985380
RightHandThumb1 -24.326973 -0.000000 -32.862282
LeftUpLeg -45.160400 23.188805 9.379099
LeftLeg 15.697713 -0.000000 -0.000000
LeftFoot -10.694895 12.011942 -13.325513
LeftToeBase 3.229024 -0.000000 -0.000000
RightUpLeg -43.013575 -14.484986 -29.628280
RightLeg 149.793917 -0.000000 -0.000000
RightFoot 43.696955 14.916336 21.602067
RightToeBase -9.365673 -0.000000 0.000000
1378
root 6.514678 38.466903 5.931777 152.953130 -59.983454 -110.105723
Spine -18.216906 7.445329 7.286350
Head -6.799071 8.911405 22.521209
LeftShoulder -8.486006 22.857975 19.060357
LeftArm 13.246289 39.865242 -73.766321
LeftForeArm 32.670691 -0.000000 37.599610
LeftHand -7.609893 -0.000000 -19.640014
LeftHandThumb1 -26.253704 0.000000 33.147579
RightShoulder -42.670666 -52.657623 27.782922
RightArm 43.733410 -15.991588 60.000687
RightForeArm 33.779259 -0.000000 18.022688
RightHand -2.643101 -0.000000 5.067473
RightHandThumb1 -24.326973 -0.000000 -32.862282
LeftUpLeg -44.710707 22.936354 9.754058
LeftLeg 15.642217 -0.000000 -0.000000
LeftFoot -10.712792 12.057557 -13.362506
LeftToeBase 3.247277 -0.000000 -0.000000
RightUpLeg -43.592364 -14.893022 -29.495984
RightLeg 149.595209 -0.000000 -0.000000
RightFoot 43.648044 14.952178 21.586266
RightToeBase -9.344383 -0.000000 0.000000
1379
root 6.499248 38.465895 5.921702 152.261597 -60.005174 -109.820593
Spine -18.009209 7.415958 7.494272
Head -6.739407 8.851271 22.548396
LeftShoulder -8.487703 22.837436 19.019056
LeftArm 13.254342 39.817218 -73.780338
LeftForeArm 32.679891 -0.000000 37.563773
LeftHand -7.546138 0.000000 -19.720020
LeftHandThumb1 -26.253704 0.000000 33.147579
RightShoulder -42.423803 -52.574452 27.655875
RightArm 43.914284 -15.649151 60.037960
RightForeArm 33.574634 -0.000000 17.705523
RightHand -2.467330 -0.000000 5.201113
RightHandThumb1 -24.326973 -0.000000 -32.862282
LeftUpLeg -44.179933 22.716128 10.130812
LeftLeg 15.597093 -0.000000 -0.000000
LeftFoot -10.745110 12.078907 -13.394839
LeftToeBase 3.222024 -0.000000 -0.000000
RightUpLeg -44.129499 -15.277612 -29.377649
RightLeg 149.405973 -0.000000 -0.000000
RightFoot 43.518564 14.751168 21.740850
RightToeBase -8.948392 -0.000000 0.000000
1380
root 6.486716 38.465683 5.913888 151.653590 -60.019773 -109.534300
Spine -17.909324 7.419959 7.692669
Head -6.669223 8.748540 22.561774
LeftShoulder -8.484117 22.885045 18.952752
LeftArm 13.332348 39.828203 -73.685717
LeftForeArm 32.622356 -0.000000 37.595035
LeftHand -7.604368 0.000000 -19.667564
LeftHandThumb1 -26.253704 0.000000 33.147579
RightShoulder -42.198177 -52.480346 27.506163
RightArm 44.071116 -15.327473 60.099193
RightForeArm 33.436263 -0.000000 17.408936
RightHand -2.383472 -0.000000 5.392444
RightHandThumb1 -24.326973 -0.000000 -32.862282
LeftUpLeg -43.771116 22.524790 10.444419
LeftLeg 15.572505 -0.000000 -0.000000
LeftFoot -10.777491 12.127591 -13.391190
LeftToeBase 3.243883 -0.000000 -0.000000
RightUpLeg -44.762776 -15.699151 -29.237707
RightLeg 149.206585 -0.000000 -0.000000
RightFoot 43.405253 14.679372 21.842047
RightToeBase -8.853906 -0.000000 0.000000
1381
root 6.471863 38.462931 5.903948 150.928003 -60.044744 -109.192332
Spine -17.708546 7.367139 7.940223
Head -6.660924 8.656528 22.553027
LeftShoulder -8.481398 22.834199 18.915910
LeftArm 13.325801 39.814481 -73.732728
LeftForeArm 32.587047 -0.000000 37.491510
LeftHand -7.703175 0.000000 -19.578372
LeftHandThumb1 -26.253704 0.000000 33.147579
RightShoulder -41.962092 -52.384284 27.352218
RightArm 44.307602 -15.082725 60.023567
RightForeArm 33.367319 -0.000000 17.089652
RightHand -2.204955 -0.000000 5.468273
RightHandThumb1 -24.326973 -0.000000 -32.862282
LeftUpLeg -43.301352 22.314915 10.788747
LeftLeg 15.557370 -0.000000 -0.000000
LeftFoot -10.822789 12.153140 -13.364654
LeftToeBase 3.249920 -0.000000 -0.000000
RightUpLeg -45.314631 -16.111904 -29.101112
RightLeg 148.969993 -0.000000 -0.000000
RightFoot 43.425142 14.588278 22.052751
RightToeBase -8.966633 -0.000000 0.000000
1382
root 6.457027 38.459985 5.894527 150.125998 -60.060702 -108.814226
Spine -17.472834 7.334433 8.198995
Head -6.605423 8.507629 22.569829
LeftShoulder -8.403409 22.835309 18.913998
LeftArm 13.382049 39.756531 -73.786731
LeftForeArm 32.651476 -0.000000 37.349934
LeftHand -7.686038 -0.000000 -19.506591
LeftHandThumb1 -26.253704 0.000000 33.147579
RightShoulder -41.680413 -52.275852 27.157232
RightArm 44.487017 -14.766654 60.050882
RightForeArm 33.270533 -0.000000 16.763034
RightHand -2.122323 -0.000000 5.614440
RightHandThumb1 -24.326973 -0.000000 -32.862282
LeftUpLeg -42.788735 22.100735 11.149952
LeftLeg 15.529070 -0.000000 -0.000000
LeftFoot -10.866844 12.200308 -13.283197
LeftToeBase 3.245696 -0.000000 -0.000000
RightUpLeg -45.814001 -16.484563 -28.969356
RightLeg 148.753278 -0.000000 -0.000000
RightFoot 43.371916 14.334621 22.574608
RightToeBase -8.674312 -0.000000 0.000000
